<svg xmlns="http://www.w3.org/2000/svg" height="50" width="50" viewBox="0 0 576 512">
  <defs>
    <linearGradient id="myGradient" x1="0%" y1="0%" x2="0%" y2="100%">
      <stop offset="0%" style="stop-color:#ffffe3" />
      <stop offset="10%" style="stop-color:#fdfbc9" />
      <stop offset="20%" style="stop-color:#fcf7af" />
      <stop offset="30%" style="stop-color:#fcf393" />
      <stop offset="40%" style="stop-color:#fdee77" />
      <stop offset="50%" style="stop-color:#fde664" />
      <stop offset="60%" style="stop-color:#fede4f" />
      <stop offset="70%" style="stop-color:#ffd639" />
      <stop offset="80%" style="stop-color:#ffc92b" />
      <stop offset="90%" style="stop-color:#ffbc1e" />
      <stop offset="100%" style="stop-color:#ffaf0f" />
    </linearGradient>
  </defs>
  <path d="M316.9 18C311.6 7 300.4 0 288.1 0s-23.4 7-28.8 18L195 150.3 51.4 171.5c-12 1.8-22 10.2-25.7 21.7s-.7 24.2 7.9 32.7L137.8 329 113.2 474.7c-2 12 3 24.2 12.9 31.3s23 8 33.8 2.3l128.3-68.5 128.3 68.5c10.8 5.7 23.9 4.9 33.8-2.3s14.9-19.3 12.9-31.3L438.5 329 542.7 225.9c8.6-8.5 11.7-21.2 7.9-32.7s-13.7-19.9-25.7-21.7L381.2 150.3 316.9 18z"
    fill="url(#myGradient)" />
</svg>
